<svg xmlns="http://www.w3.org/2000/svg" version="1.1" xmlns:xlink="http://www.w3.org/1999/xlink" xmlns:svgjs="http://svgjs.dev/svgjs" width="2000" height="2000" viewBox="0 0 2000 2000"><g transform="matrix(1,0,0,1,-0.28443113772425477,-0.28443113772459583)"><svg viewBox="0 0 334 334" data-background-color="#636365" preserveAspectRatio="xMidYMid meet" height="2000" width="2000" xmlns="http://www.w3.org/2000/svg" xmlns:xlink="http://www.w3.org/1999/xlink"><g id="tight-bounds" transform="matrix(1,0,0,1,0.04749999999998522,0.04750000000001364)"><svg viewBox="0 0 333.90454557049503 333.90454557049503" height="333.90454557049503" width="333.90454557049503"><g><svg></svg></g><g><svg viewBox="0 0 333.90454557049503 333.90454557049503" height="333.90454557049503" width="333.90454557049503"><g><path d="M0 166.952c0-92.205 74.747-166.952 166.952-166.952 92.205 0 166.952 74.747 166.953 166.952 0 92.205-74.747 166.952-166.953 166.953-92.205 0-166.952-74.747-166.952-166.953zM166.952 324.858c87.209 0 157.906-70.697 157.906-157.906 0-87.209-70.697-157.906-157.906-157.906-87.209 0-157.906 70.697-157.906 157.906 0 87.209 70.697 157.906 157.906 157.906z" data-fill-palette-color="tertiary" fill="#000000" stroke="transparent"></path><ellipse rx="160.27418187383762" ry="160.27418187383762" cx="166.95227278524752" cy="166.95227278524752" fill="#000000" stroke="transparent" stroke-width="0" fill-opacity="1" data-fill-palette-color="tertiary"></ellipse></g><g transform="matrix(1,0,0,1,77.31936822907694,71.17305217166896)"><svg viewBox="0 0 179.26580911234115 191.55844122715712" height="191.55844122715712" width="179.26580911234115"><g><svg viewBox="0 0 179.26580911234115 191.55844122715712" height="191.55844122715712" width="179.26580911234115"><g><svg viewBox="0 0 213.1584412271571 227.77516213533102" height="191.55844122715712" width="179.26580911234115"><g transform="matrix(1,0,0,1,0,108.49829039668731)"><svg viewBox="0 0 213.1584412271571 119.27687173864369" height="119.27687173864369" width="213.1584412271571"><g id="textblocktransform"><svg viewBox="0 0 213.1584412271571 119.27687173864369" height="119.27687173864369" width="213.1584412271571" id="textblock"><g><svg viewBox="0 0 213.1584412271571 119.27687173864369" height="119.27687173864369" width="213.1584412271571"><g transform="matrix(1,0,0,1,0,0)"><svg width="213.1584412271571" viewBox="2.9 -32.3 78.89999999999999 44.15" height="119.27687173864369" data-palette-color="#636365"><path d="M2.9 0.6L3.2-1.7Q5.5-2.15 6.3-3.03 7.1-3.9 7.1-6L7.1-6 7.15-27Q7.15-28.6 6.78-29.15 6.4-29.7 5.3-29.7L5.3-29.7 3.6-29.6 3.5-29.8 3.85-32Q4.5-32 4.85-31.95L4.85-31.95Q7.85-31.85 9.4-31.85L9.4-31.85Q11.5-31.85 14.75-32.3L14.75-32.3 14.55-30.05Q13.05-29.8 12.43-29.45 11.8-29.1 11.58-28.28 11.35-27.45 11.25-25.55L11.25-25.55 10.95-17.45 19.35-17.4Q22.5-17.4 26.75-17.9L26.75-17.9 26.8-27Q26.8-28.6 26.43-29.15 26.05-29.7 24.95-29.7L24.95-29.7Q24.25-29.7 23.25-29.6L23.25-29.6 23.15-29.8 23.5-32Q24.05-31.95 25.5-31.9 26.95-31.85 28.4-31.85L28.4-31.85Q30.8-31.85 34.4-32.3L34.4-32.3 34.2-30.05Q32.35-29.8 31.7-29.23 31.05-28.65 31-27.2L31-27.2Q30.7-21.55 30.5-15.08 30.3-8.6 30.3-5.3L30.3-5.3Q30.3-3.45 30.75-2.83 31.2-2.2 32.5-2.2L32.5-2.2Q33.1-2.2 34.75-2.35L34.75-2.35 34.85-2.15 34.4 0.15Q33.7 0.15 33.3 0.1L33.3 0.1Q30 0 28.25 0L28.25 0 22.5 0.1 22.95-2.15Q24.6-2.2 25.38-2.6 26.15-3 26.45-4.1 26.75-5.2 26.75-7.5L26.75-7.5 26.75-15.05 19.15-15.1Q17.9-15.05 15.65-14.93 13.4-14.8 10.85-14.55L10.85-14.55 10.65-5.6Q10.65-3.55 11.1-2.88 11.55-2.2 12.85-2.2L12.85-2.2Q13.45-2.2 15.1-2.35L15.1-2.35 15.2-2.15 14.75 0.15Q14.3 0.1 13.05 0.05 11.8 0 10.5 0L10.5 0Q8.2 0 5.58 0.2 2.95 0.4 2.9 0.6L2.9 0.6ZM39.95 11.85L40.2 9.9Q41.3 9.75 41.82 9.45 42.35 9.15 42.55 8.45 42.75 7.75 42.75 6.3L42.75 6.3Q42.75 4.2 42.8 2.7L42.8 2.7 42.85-2 42.85-16.9Q42.85-18.6 42.3-19.28 41.75-19.95 40.4-19.95L40.4-19.95 39.85-19.95 39.7-20.15 39.85-21.8Q42-22.15 44.12-22.63 46.25-23.1 46.85-23.25L46.85-23.25 47.15-22.85Q47.1-22.6 46.92-21.78 46.75-20.95 46.65-20.15L46.65-20.15 46.85-19.8Q51.55-23.05 52.65-23.05L52.65-23.05Q55.5-23.05 57.7-21.73 59.9-20.4 61.1-18 62.3-15.6 62.3-12.5L62.3-12.5Q62.3-8.95 60.6-5.95 58.9-2.95 56.05-1.18 53.2 0.6 49.85 0.6L49.85 0.6Q48.75 0.6 47.67 0.53 46.6 0.45 46.2 0.4L46.2 0.4 46.25 5.55Q46.25 7.85 46.72 8.68 47.2 9.5 48.6 9.5L48.6 9.5 50.3 9.45 50.4 9.6 50 11.5 45.25 11.5Q43.45 11.5 41.92 11.65 40.4 11.8 39.95 11.85L39.95 11.85ZM51.25-2.15Q54.6-2.15 56.52-4.42 58.45-6.7 58.45-10.65L58.45-10.65Q58.45-13.15 57.57-15.2 56.7-17.25 55.17-18.45 53.65-19.65 51.85-19.65L51.85-19.65Q50.85-19.65 49.4-18.98 47.95-18.3 46.65-17.2L46.65-17.2Q46.25-10.65 46.25-3.1L46.25-3.1Q47.25-2.7 48.62-2.43 50-2.15 51.25-2.15L51.25-2.15ZM72.65 0.6Q71.05 0.6 69.72 0.38 68.4 0.15 67.65-0.1 66.9-0.35 66.7-0.45L66.7-0.45 66.55-0.8Q66.7-1.55 66.9-3.9 67.1-6.25 67.15-7.5L67.15-7.5 68.9-7.75Q68.9-4.45 70-3.1 71.1-1.75 73.75-1.75L73.75-1.75Q75.65-1.75 76.95-2.6 78.25-3.45 78.25-4.7L78.25-4.7Q78.25-5.95 77.07-6.98 75.9-8 72.45-9.85L72.45-9.85Q69.6-11.3 68.3-12.8 67-14.3 67-16.1L67-16.1Q67-18.1 68.2-19.73 69.4-21.35 71.5-22.28 73.6-23.2 76.2-23.2L76.2-23.2Q77.4-23.2 78.5-23.03 79.6-22.85 80.3-22.65 81-22.45 81.2-22.4L81.2-22.4 81.3-22.15Q81.2-21.65 80.85-19.88 80.5-18.1 80.35-16.05L80.35-16.05 78.5-15.9Q78.5-16.05 78.55-16.5 78.6-16.95 78.6-17.35L78.6-17.35Q78.6-19.15 77.62-19.98 76.65-20.8 74.5-20.8L74.5-20.8Q72.8-20.8 71.62-20 70.45-19.2 70.45-18.05L70.45-18.05Q70.45-16.85 71.47-15.8 72.5-14.75 74.8-13.55L74.8-13.55Q78.85-11.4 80.32-9.93 81.8-8.45 81.8-6.55L81.8-6.55Q81.8-4.65 80.55-3 79.3-1.35 77.17-0.38 75.05 0.6 72.65 0.6L72.65 0.6Z" opacity="1" transform="matrix(1,0,0,1,0,0)" fill="#ffffff" class="wordmark-text-0" data-fill-palette-color="quaternary" id="text-0"></path></svg></g></svg></g></svg></g></svg></g><g transform="matrix(1,0,0,1,40.713262274387006,0)"><svg viewBox="0 0 131.7319166783831 80.33988362411526" height="80.33988362411526" width="131.7319166783831"><g><svg xmlns="http://www.w3.org/2000/svg" xmlns:xlink="http://www.w3.org/1999/xlink" version="1.1" x="0" y="0" viewBox="1.9 20.5 95.4812040422236 58.23151301875373" style="enable-background:new 0 0 100 100;" xml:space="preserve" height="80.33988362411526" width="131.7319166783831" class="icon-icon-0" data-fill-palette-color="quaternary" id="icon-0"><path d="M89.8 54.8L70.6 60.2V60.3C71.1 62.2 70.8 64.3 69.8 66 68.8 67.9 67.1 69.2 65 69.8 63 70.4 60.8 70.1 58.9 69.1L47.9 63 48.9 61.1 60 67.3C61.4 68.1 62.9 68.2 64.4 67.8S67.1 66.4 67.9 65C68.3 64.3 68.5 63.5 68.6 62.7 68.9 60.8 68 58.8 66.3 57.9L39.5 43S36.7 41.1 32.9 42.2H32.8C32.2 42.3 3.3 50.6 2 51H1.9L7.8 71.7 27.1 66.2C29.1 67.4 43.8 76.5 45.6 77.6 48.9 79.5 52.9 78.5 53.8 78.2 53.9 78.2 93.2 67 93.2 67 95.9 66.2 98.2 62.6 97.1 58.9 96.2 55.8 92.9 53.9 89.8 54.8" fill="#ffffff" data-fill-palette-color="quaternary"></path><path d="M50.7 32L54.7 36.4 57.2 33.9 59.7 36.4 62.3 33.9 64.9 36.4 67.4 33.9 70 36.4 73.4 33.9H76V40C76 40.8 76.6 41.4 77.4 41.4H89.5C90.3 41.4 90.9 40.8 90.9 40V21.9C90.9 21.1 90.3 20.5 89.5 20.5H77.4C76.6 20.5 76 21.1 76 21.9V28L54.4 27.9zM83.5 23.4H88.3V38.4H83.5z" fill="#ffffff" data-fill-palette-color="quaternary"></path></svg></g></svg></g><g></g></svg></g></svg></g></svg></g></svg></g><defs></defs></svg><rect width="333.90454557049503" height="333.90454557049503" fill="none" stroke="none" visibility="hidden"></rect></g></svg></g></svg>